<svg width="84" height="84" viewBox="0 0 84 84" fill="none" xmlns="http://www.w3.org/2000/svg">
<path d="M65.625 52.5H13.125C10.2375 52.5 7.875 54.8625 7.875 57.75C7.875 60.6375 10.2375 63 13.125 63C10.2375 63 7.875 65.3625 7.875 68.25C7.875 71.1375 10.2375 73.5 13.125 73.5H65.625C71.4 73.5 76.125 68.775 76.125 63C76.125 57.225 71.4 52.5 65.625 52.5Z" stroke="#25D366" stroke-width="2" stroke-miterlimit="10" stroke-linecap="round" stroke-linejoin="round"/>
<path d="M65.625 60.375V63H13.125" stroke="#25D366" stroke-width="2" stroke-miterlimit="10" stroke-linecap="round" stroke-linejoin="round"/>
<path d="M65.625 10.5H13.125C10.2375 10.5 7.875 12.8625 7.875 15.75C7.875 18.6375 10.2375 21 13.125 21C10.2375 21 7.875 23.3625 7.875 26.25C7.875 29.1375 10.2375 31.5 13.125 31.5H65.625C71.4 31.5 76.125 26.775 76.125 21C76.125 15.225 71.4 10.5 65.625 10.5Z" stroke="#25D366" stroke-width="2" stroke-miterlimit="10" stroke-linecap="round" stroke-linejoin="round"/>
<path d="M65.625 18.375V21H13.125" stroke="#25D366" stroke-width="2" stroke-miterlimit="10" stroke-linecap="round" stroke-linejoin="round"/>
<path d="M18.375 31.5H70.875C73.7625 31.5 76.125 33.8625 76.125 36.75C76.125 39.6375 73.7625 42 70.875 42C73.7625 42 76.125 44.3625 76.125 47.25C76.125 50.1375 73.7625 52.5 70.875 52.5H18.375C12.6 52.5 7.875 47.775 7.875 42C7.875 36.225 12.6 31.5 18.375 31.5Z" stroke="#25D366" stroke-width="2" stroke-miterlimit="10" stroke-linecap="round" stroke-linejoin="round"/>
<path d="M18.375 39.375V42H70.875" stroke="#25D366" stroke-width="2" stroke-miterlimit="10" stroke-linecap="round" stroke-linejoin="round"/>
</svg>
