<?xml version="1.0" encoding="UTF-8"?>
<!DOCTYPE svg PUBLIC "-//W3C//DTD SVG 1.1//EN" "http://www.w3.org/Graphics/SVG/1.1/DTD/svg11.dtd">
<!-- Creator: CorelDRAW 2021.5 -->
<svg xmlns="http://www.w3.org/2000/svg" xml:space="preserve" width="13.7214in" height="12.5685in" version="1.1" style="shape-rendering:geometricPrecision; text-rendering:geometricPrecision; image-rendering:optimizeQuality; fill-rule:evenodd; clip-rule:evenodd"
viewBox="0 0 3203.04 2933.9"
 xmlns:xlink="http://www.w3.org/1999/xlink"
 xmlns:xodm="http://www.corel.com/coreldraw/odm/2003">
 <defs>
  <style type="text/css">
   <!-- <![CDATA[
    .fil1 {fill:#3C6933}
    .fil0 {fill:#2F6634}
    .fil5 {fill:#25D366}
    .fil2 {fill:white}
    .fil3 {fill:url(#id0)}
    .fil6 {fill:url(#id1)}
    .fil4 {fill:url(#id2)}
   ]]> -->
  </style>
  <linearGradient id="id0" gradientUnits="userSpaceOnUse" x1="1974.9" y1="1617.71" x2="1462.93" y2="3600.54">
   <stop offset="0" style="stop-opacity:1; stop-color:#25D366"/>
   <stop offset="0.301961" style="stop-opacity:1; stop-color:#2A9D4D"/>
   <stop offset="1" style="stop-opacity:1; stop-color:#2F6634"/>
  </linearGradient>
  <linearGradient id="id1" gradientUnits="userSpaceOnUse" xlink:href="#id0" x1="2151.19" y1="1634.12" x2="2049.06" y2="1936.22">
  </linearGradient>
  <linearGradient id="id2" gradientUnits="userSpaceOnUse" xlink:href="#id0" x1="1345.2" y1="887.73" x2="1247.28" y2="1330.99">
  </linearGradient>
 </defs>
 <g id="Layer_x0020_1">
  <metadata id="CorelCorpID_0Corel-Layer"/>
  <g id="_1738844704384">
   <path class="fil0" d="M1768.64 541.83c604.46,0 1094.5,490.03 1094.5,1094.49 0,604.46 -490.04,1094.5 -1094.5,1094.5 -604.48,0 -1094.5,-490.03 -1094.5,-1094.5 0,-604.46 490.02,-1094.49 1094.5,-1094.49zm0 -203.08c528,0 982.33,315.37 1184.9,768.02l249.51 0 0 1059.09 -249.51 0c-202.57,452.65 -656.9,768.05 -1184.9,768.05 -716.65,0 -1297.59,-580.95 -1297.59,-1297.58 0,-716.64 580.95,-1297.57 1297.59,-1297.57z"/>
   <path class="fil1" d="M427.03 1578.93l-26.32 -49.65 26.32 -49.65 -49.65 26.32 -49.65 -26.32 26.32 49.65 -26.32 49.65 49.65 -26.31 49.65 26.31zm1663.5 -1385.04l36.66 -69.9 78.44 -8.87 -69.9 -36.66 -8.89 -78.46 -36.68 69.9 -78.42 8.91 69.88 36.66 8.91 78.42zm-1975.43 1221.48l-36.67 -69.9 -78.43 -8.89 69.89 -36.67 8.89 -78.42 36.67 69.9 78.43 8.89 -69.89 36.67 -8.89 78.42z"/>
   <path class="fil2" d="M2228.17 2621.17c-1.42,0.71 -2.84,1.38 -4.28,2.05 -142.93,66.06 -297.84,99.74 -455.26,99.74 -376.6,0 -719.02,-193.27 -916.23,-502.2 -164.95,-258.43 45.45,-539.02 314.17,-464.34 126.27,35.08 215.17,140.26 270.48,254.25 44.51,91.66 116.7,200.07 215.27,239.7l33.51 13.47 0 2.96c163.16,-2.57 290.6,-131.32 370.89,-263.96 22.55,-37.25 51.97,-77.36 87.69,-103.05 31.94,-22.97 71.88,-35.12 109.46,-17.79 52.94,24.43 63.76,87.69 59,139.82 -2.23,24.31 -7.6,48.92 -15.2,73.14 50.21,-96.1 82.51,-202.27 76.85,-311.4 -4.49,-86.81 -32.4,-156.98 -103.13,-209.8 -90.61,-67.7 -216.92,-88.25 -317.99,-137.58 -61.17,-29.84 -118.28,-73.8 -151.03,-134.64 -27.27,-50.67 -34.63,-108.67 -16.26,-163.66 26.81,-80.3 99.25,-130.82 180.55,-145.14 78,-13.73 157.21,4.74 228.63,38.27 3.76,-8.44 8.75,-15.6 14.64,-21.63 -13.19,-6.18 -25.62,-11.73 -36.74,-16.56 -56.96,-24.7 -112.36,-33.68 -174.02,-26.25 -86.89,10.44 -179.36,51.07 -262.79,78.33 -112.47,36.75 -236.23,12.43 -298.39,-95.69 -45.91,-79.86 -38.33,-177.94 13.38,-253.1 69.75,-101.38 196.94,-139.53 314.13,-146.36 249.05,-14.6 503.55,90.82 693.77,247.59 251.14,206.95 396.01,513.1 396.01,838.96 0,423.05 -245.03,806.3 -627.12,984.87l0 0z"/>
   <path class="fil3" d="M1719.79 994.11c170.68,-55.79 299.48,-126.31 474.68,-50.3 128.17,55.62 199.42,107.13 230.39,140.51 25.91,27.91 17.02,43.59 3.43,42.38 -9.52,-0.86 -18.35,-12.25 -31.94,-24.13 -26.45,-23.09 -57.43,-59.33 -104.75,-65.06 -53.05,-6.45 -79.63,32.46 7.56,80.11 264.46,144.56 268.36,384.64 194.04,256.46 -36.81,-63.51 -107.23,-165.11 -249.85,-254.65 -351.44,-232.65 -577.86,116.77 -266.49,268.74 163.39,79.75 435.49,91.8 451.05,392.67 8.06,155.92 -53.34,300.75 -128.75,417.44 -75.81,117.35 -188.22,132.09 -103.64,-8.63 136.52,-227.13 36.72,-369.29 -93.06,-159.11 -254.65,412.44 -543.29,354.13 -713.48,3.49 -221.39,-456.12 -710.23,-168.32 -479.4,176.42 185.32,276.8 500.9,459.08 859.05,459.08 154.56,0 301.2,-33.97 432.84,-94.82 1.15,-0.52 2.28,-1.09 3.43,-1.65 352.56,-164.48 596.92,-522.03 596.92,-936.73 0,-321.25 -146.6,-608.24 -376.53,-797.73 -181.66,-149.7 -423.36,-249.98 -656.67,-235.5 -452.15,25.67 -350.88,489.7 -48.85,391.01l0 0z"/>
   <path class="fil0" d="M2000.33 1234.33c196.76,62.82 425.39,91.8 512.72,321.27 -13.09,-195.04 -252.81,-454.38 -480.38,-470.38 -121.17,-8.54 -154.45,110.13 -32.34,149.11l0 0z"/>
   <path class="fil0" d="M1673.67 856.88c198.76,-56.24 514.77,-123.44 714.28,19.69 -169.51,-170.68 -571.03,-274.14 -769.63,-161.89 -105.72,59.78 -67.96,177.1 55.35,142.2z"/>
   <path class="fil2" d="M1399.1 985.14c-3.38,59.29 -23.7,118.6 -71.32,156.79 -39.42,31.61 -91.13,42.38 -139.75,28.35 -40.51,-11.69 -74,-39.33 -93.3,-76.81 -22.38,-43.45 -23.34,-93.14 -9.52,-139.22 82.4,-274.73 462.64,-390.16 635.13,-392.59 -167.04,70.57 -307.64,185.61 -321.25,423.49l0 0z"/>
   <path class="fil4" d="M1503.37 660.6c-131.22,100.6 -151.18,208.73 -157.63,321.5 -12.11,211.87 -259.62,165.71 -209.07,-13.32 42.2,-149.49 220.16,-265 366.7,-308.17l0 0z"/>
   <path class="fil5" d="M1377.73 740.94c-84.03,89.06 -78.57,170.31 -82.47,238.46 -7.33,128.03 -146.88,93.66 -116.35,-14.53 25.51,-90.36 110.13,-171.97 198.82,-223.94l0 0z"/>
   <path class="fil2" d="M2042.62 1706.32c-49.98,-2.9 -99.96,-20.06 -132.13,-60.21 -26.64,-33.24 -35.68,-76.85 -23.84,-117.83 9.89,-34.14 33.19,-62.37 64.8,-78.61 36.66,-18.85 78.37,-18.98 117.38,-7.95 143.62,40.63 325.19,212.02 316.01,354.09l-9.69 149.76c-47.66,-108.52 -141.44,-228.22 -332.54,-239.28l0 0.02z"/>
   <path class="fil6" d="M2316.15 1794.37c-84.74,-110.66 -175.88,-127.56 -270.95,-133.04 -178.59,-10.33 -139.55,-218.94 11.36,-176.25 126,35.66 223.27,185.73 259.58,309.29l0 0z"/>
   <path class="fil1" d="M2248.5 1688.41c-75.05,-70.86 -143.54,-66.31 -200.99,-69.63 -107.94,-6.24 -78.88,-123.87 12.32,-98.08 76.14,21.55 144.89,92.93 188.67,167.71l0 0z"/>
   <path class="fil2" d="M960.25 1370.89l26.31 -49.64 -26.31 -49.66 49.63 26.32 49.65 -26.32 -26.31 49.66 26.31 49.64 -49.65 -26.32 -49.63 26.32zm563.85 201.31l36.68 -69.9 78.42 -8.89 -69.88 -36.67 -8.89 -78.42 -36.68 69.88 -78.42 8.89 69.88 36.67 8.89 78.44 0 0z"/>
   <path class="fil2" d="M1336.34 2294.1c19.52,0 35.35,15.82 35.35,35.36 0,19.52 -15.83,35.35 -35.35,35.35 -19.52,0 -35.36,-15.83 -35.36,-35.35 0,-19.54 15.83,-35.36 35.36,-35.36zm189.35 50.29c28.64,0 51.86,23.2 51.86,51.84 0,28.66 -23.22,51.86 -51.86,51.86 -28.64,0 -51.86,-23.22 -51.86,-51.86 0,-28.64 23.22,-51.84 51.86,-51.84zm414.84 99c32.99,0 59.73,26.73 59.73,59.71 0,32.97 -26.74,59.71 -59.73,59.71 -32.97,0 -59.71,-26.74 -59.71,-59.71 0,-32.98 26.74,-59.71 59.71,-59.71zm355.93 -104.5c19.54,0 35.35,15.83 35.35,35.35 0,19.54 -15.81,35.35 -35.35,35.35 -19.52,0 -35.36,-15.83 -35.36,-35.35 0,-19.52 15.84,-35.35 35.36,-35.35zm-1068.55 -304.08c38.62,0 69.92,31.33 69.92,69.94 0,38.62 -31.3,69.92 -69.92,69.92 -38.62,0 -69.92,-31.3 -69.92,-69.92 0,-38.61 31.3,-69.94 69.92,-69.94z"/>
  </g>
 </g>
</svg>
