<svg width="74" height="84" viewBox="0 0 74 84" fill="none" xmlns="http://www.w3.org/2000/svg">
<path d="M37.0004 28.9797C28.9201 28.9797 22.3471 35.5534 22.3471 43.6322C22.3471 51.7109 28.9201 58.2861 37.0004 58.2861C45.0799 58.2861 51.6529 51.7111 51.6529 43.6322C51.6529 35.5532 45.0799 28.9797 37.0004 28.9797ZM41.7199 39.5785C42.3599 39.5785 42.8776 40.0979 42.8776 40.7355C42.8776 41.3743 42.3599 41.8938 41.7199 41.8938C41.0826 41.8938 40.5636 41.3743 40.5636 40.7355C40.5636 40.0979 41.0826 39.5785 41.7199 39.5785ZM36.0998 36.5652C36.6388 36.5652 37.0747 37.0017 37.0747 37.5381C37.0747 38.0768 36.6388 38.5123 36.0998 38.5123C35.5622 38.5123 35.1269 38.077 35.1269 37.5381C35.1269 37.0017 35.5622 36.5652 36.0998 36.5652ZM48.1897 43.6323C48.1897 49.8134 43.1799 54.823 37.0002 54.823C30.8418 54.823 25.8489 49.8482 25.8106 43.7009C36.7378 34.0581 36.1328 53.5276 48.1568 42.8161C48.1769 43.0842 48.1897 43.3564 48.1897 43.6323Z" fill="#25D366"/>
<path d="M51.6431 28.9902C47.8962 25.2422 42.7097 22.9167 37.0002 22.9167C31.2901 22.9167 26.1035 25.2422 22.3566 28.9902C18.6081 32.7369 16.2819 37.9242 16.283 43.6323C16.2819 49.343 18.6079 54.5291 22.3566 58.2758C26.1033 62.0238 31.29 64.3506 37.0002 64.3493C42.7096 64.3506 47.8962 62.0238 51.6431 58.2758C53.1187 56.8002 54.3695 55.0993 55.3489 53.2322H63.8626V36.3049H56.3745C55.3232 33.5362 53.6996 31.0449 51.6431 28.9902ZM49.8559 56.4894C46.5576 59.7877 42.0174 61.823 37.0003 61.823C31.9827 61.823 27.4426 59.7877 24.1441 56.4894C20.8476 53.191 18.8104 48.6501 18.8104 43.6324C18.8104 38.6162 20.8476 34.0766 24.1441 30.7768C27.4426 27.481 31.9827 25.4431 37.0003 25.4431C42.0174 25.4431 46.5576 27.481 49.8559 30.7768C53.1523 34.0764 55.1896 38.6161 55.1896 43.6324C55.1896 48.65 53.1523 53.1909 49.8559 56.4894ZM57.149 38.8336H61.3356V50.7058H56.4714C57.2767 48.497 57.7165 46.1145 57.7165 43.6323C57.7165 41.982 57.517 40.374 57.149 38.8336Z" fill="#25D366"/>
<path d="M71.797 1.33055C70.9801 0.511713 69.8304 -0.00130999 68.5815 2.5124e-06H5.41829C4.16945 -0.00130999 3.01954 0.511713 2.20283 1.33055C1.38268 2.14939 0.870316 3.29717 0.870972 4.54732V76.7568C0.870316 78.0068 1.38268 79.1561 2.20283 79.9736C3.01954 80.7923 4.16945 81.3066 5.41829 81.3041H9.45981V84H17.2083V81.3041H56.7915V84H64.5402V81.3041H68.5817C69.8305 81.3066 70.9803 80.7923 71.7972 79.9736C72.6173 79.1559 73.1297 78.0068 73.129 76.7568V4.54732C73.1295 3.297 72.6172 2.14922 71.797 1.33055ZM69.0869 76.7568C69.0855 76.9045 69.033 77.0159 68.9385 77.1143C68.8406 77.2101 68.7266 77.262 68.5815 77.262H5.41829C5.2731 77.262 5.15924 77.2101 5.06146 77.1143C4.96679 77.0159 4.91495 76.9043 4.91298 76.7568V71.787H69.0869V76.7568ZM69.0869 69.2619H4.91298V4.54732C4.91495 4.40229 4.96679 4.28827 5.06146 4.19098C5.15924 4.09517 5.2731 4.04332 5.41829 4.04086H68.5815C68.7266 4.04332 68.8406 4.09533 68.9385 4.19098C69.033 4.28827 69.0855 4.40229 69.0869 4.54732V69.2619Z" fill="#25D366"/>
<path d="M57.0864 9.81348H16.9135V19.9214H57.0864V9.81348Z" fill="#25D366"/>
</svg>
