<svg width="49" height="38" viewBox="0 0 49 38" fill="none" xmlns="http://www.w3.org/2000/svg">
<path d="M6.4139 8.29448L0 9.53867L6.42555 11.2508C6.82523 11.3598 7.18557 11.5642 7.46909 11.8428C7.75261 12.1215 7.94896 12.4642 8.03779 12.8352L9.63833 19.8323L11.3674 12.9629C11.4687 12.5794 11.6852 12.2291 11.9926 11.9512C12.2999 11.6733 12.6862 11.4786 13.1082 11.389L19.5337 10.0597L12.9212 8.36893C12.5264 8.24837 12.1743 8.03398 11.9011 7.74792C11.6279 7.46187 11.4437 7.11456 11.3674 6.74193L9.89536 0L8.22472 6.69939C8.12192 7.09499 7.89673 7.4555 7.57579 7.73819C7.25487 8.02089 6.85165 8.21394 6.4139 8.29448Z" fill="#25D366"/>
<path d="M15.5108 27.261L9.76646 28.3753L15.5213 29.9087C15.8792 30.0063 16.2019 30.1894 16.4559 30.4389C16.7098 30.6885 16.8856 30.9954 16.9652 31.3277L18.3987 37.5944L19.9472 31.442C20.038 31.0986 20.2318 30.7849 20.5072 30.536C20.7824 30.2871 21.1283 30.1127 21.5063 30.0325L27.261 28.8419L21.3388 27.3277C20.9853 27.2197 20.6698 27.0277 20.4252 26.7715C20.1805 26.5153 20.0155 26.2043 19.9472 25.8705L18.6289 19.8324L17.1326 25.8324C17.0405 26.1867 16.8388 26.5095 16.5515 26.7628C16.264 27.0159 15.9029 27.1888 15.5108 27.261Z" fill="#25D366"/>
<path d="M28.5353 12.7078L18.7087 14.614L28.5532 17.237C29.1655 17.4041 29.7176 17.7173 30.152 18.1442C30.5863 18.571 30.8872 19.096 31.0233 19.6645L33.4754 30.3847L36.1245 19.8601C36.2797 19.2726 36.6114 18.736 37.0824 18.3101C37.5533 17.8844 38.145 17.5861 38.7915 17.4488L48.6359 15.4123L38.505 12.8219C37.9002 12.6371 37.3607 12.3086 36.9421 11.8704C36.5236 11.4322 36.2413 10.9001 36.1245 10.3292L33.8692 0L31.3097 10.264C31.1522 10.87 30.8072 11.4224 30.3154 11.8555C29.8237 12.2887 29.206 12.5844 28.5353 12.7078Z" fill="#25D366"/>
</svg>
