<svg width="83" height="89" viewBox="0 0 83 89" fill="none" xmlns="http://www.w3.org/2000/svg">
<path d="M82.4104 50.1152C81.8582 49.3829 80.9941 48.9524 80.0773 48.9524H2.92256C2.00543 48.9524 1.14167 49.3826 0.589479 50.1152C0.0372918 50.8472 -0.139515 51.7962 0.112428 52.6779L9.75692 86.4331C10.1153 87.6878 11.262 88.5527 12.567 88.5527H70.4331C71.7378 88.5527 72.8848 87.6878 73.2432 86.4331L82.8877 52.6779C83.1394 51.7962 82.9628 50.8472 82.4104 50.1152ZM68.2285 82.7077H14.7713L6.79681 54.7975H76.203L68.2285 82.7077Z" fill="#25D366"/>
<path d="M19.8001 44.4224H68.0219C69.6358 44.4224 70.9444 43.1138 70.9444 41.4999V22.4527C73.8771 20.1501 75.7665 16.576 75.7665 12.567C75.7665 5.63756 70.129 0 63.1998 0H14.978C13.364 0 12.0554 1.30861 12.0554 2.92254V21.9697C9.12274 24.2724 7.23332 27.8464 7.23332 31.8554C7.23332 38.7849 12.8709 44.4224 19.8001 44.4224ZM17.9005 15.4896H58.3774C59.9913 15.4896 61.2999 14.181 61.2999 12.567C61.2999 10.9531 59.9913 9.64449 58.3774 9.64449H17.9005V5.84507H63.1998C66.9065 5.84507 69.9218 8.86034 69.9218 12.5667C69.9218 16.2731 66.9065 19.2887 63.1998 19.2887H17.9005V15.4896ZM19.8001 25.1338H65.0994V28.9332H24.6224C23.0085 28.9332 21.6999 30.2418 21.6999 31.8557C21.6999 33.4696 23.0085 34.7782 24.6224 34.7782H65.0994V38.5774H19.8001C16.0934 38.5774 13.0781 35.5621 13.0781 31.8557C13.0781 28.1493 16.0937 25.1338 19.8001 25.1338Z" fill="#25D366"/>
<path d="M14.5781 61.1497L19.4002 78.1002C19.7658 79.3853 20.9366 80.224 22.2098 80.224C22.4742 80.224 22.7438 80.1879 23.0109 80.1116C24.5634 79.67 25.4638 78.0534 25.022 76.5009L20.1999 59.5501C19.758 57.9982 18.1417 57.096 16.5892 57.539C15.0367 57.9806 14.1363 59.5972 14.5781 61.1497Z" fill="#25D366"/>
<path d="M41.4999 80.2233C43.1138 80.2233 44.4225 78.9147 44.4225 77.3008V60.3503C44.4225 58.7363 43.1138 57.4277 41.4999 57.4277C39.886 57.4277 38.5774 58.7363 38.5774 60.3503V77.3008C38.5774 78.915 39.886 80.2233 41.4999 80.2233Z" fill="#25D366"/>
<path d="M59.989 80.1119C60.2564 80.1883 60.5253 80.2243 60.7901 80.2243C62.0632 80.2243 63.2341 79.3859 63.5996 78.1006L68.4217 61.15C68.8636 59.5975 67.9632 57.9809 66.4104 57.5394C64.8582 57.0975 63.2415 57.9982 62.7997 59.5504L57.9776 76.5013C57.536 78.0541 58.4364 79.6704 59.989 80.1119Z" fill="#25D366"/>
</svg>
