<svg width="129" height="129" viewBox="0 0 129 129" fill="none" xmlns="http://www.w3.org/2000/svg">
<path d="M57.5987 41.9451C60.081 41.5461 62.5872 41.3123 65.1005 41.2453C65.7913 41.2346 66.4822 41.2591 67.1705 41.3188L67.8283 41.3808C68.086 41.4454 68.3599 41.4455 68.6203 41.4994C69.1255 41.5936 69.622 41.7295 70.1048 41.9055C71.0553 42.2131 71.9241 42.7311 72.6467 43.421C72.9814 43.7675 73.2675 44.1578 73.4972 44.5813C73.7249 45.0098 73.8944 45.4667 74.0013 45.9401C74.1613 46.7626 74.1398 47.6102 73.9383 48.4235C73.8334 48.8423 73.7258 49.2719 73.5538 49.6852L73.3038 50.41L73.2715 50.5389C73.2584 50.6587 73.2702 50.78 73.3061 50.8951C73.3421 51.0101 73.4015 51.1165 73.4806 51.2075C73.821 51.504 74.2095 51.7402 74.6294 51.9062C76.0826 52.4628 77.6128 52.7922 79.1663 52.883C80.9051 53.0381 82.6512 53.0946 84.3964 53.052C87.9485 52.949 91.5599 52.5641 95.1659 52.1094C98.4765 51.6492 101.632 50.9446 104.754 50.232C106.766 49.7658 108.753 49.168 110.831 48.7529C112.909 48.3377 114.915 47.9843 116.996 47.741C118.32 47.6047 118.319 48.3806 117.473 49.481C116.214 51.0589 114.563 52.2783 112.684 53.0173C112.171 53.197 111.677 53.3927 111.156 53.5589L109.61 53.9931L106.497 54.7998C104.414 55.3277 102.311 55.7938 100.195 56.2224C95.931 57.1137 91.5989 57.6433 87.2454 57.8056C84.5927 57.8714 81.8943 58.0285 79.078 57.9278C77.61 57.8818 76.1487 57.7104 74.7099 57.4156C73.9148 57.2541 73.1378 57.0136 72.3905 56.6976C71.5078 56.328 70.6959 55.808 69.991 55.1607C69.286 54.5402 68.738 53.7616 68.3919 52.8885C68.088 52.0361 67.9614 51.1306 68.02 50.2276C68.0533 49.7577 68.1391 49.2931 68.2757 48.8423L68.3376 48.5953L68.378 48.4343C68.4752 48.2289 68.531 48.0063 68.5421 47.7792C68.5344 47.6129 68.48 47.4521 68.3851 47.3153C68.2901 47.1785 68.1586 47.0712 68.0055 47.0057C67.6657 46.8548 67.3024 46.7638 66.9316 46.7367C65.3412 46.6578 63.7469 46.7244 62.1686 46.9358C60.4636 47.1363 58.7935 47.4255 56.9837 47.7253C55.1739 48.0251 53.4475 48.1747 51.7639 48.5175C46.5419 49.4301 41.3872 50.6933 36.3348 52.2984C32.425 53.6013 28.6922 55.2454 25.0266 56.8491C24.2102 57.1924 23.4368 57.5921 22.6151 57.9112C19.5913 59.1394 18.5334 59.1711 17.2157 58.0992C16.9003 57.8752 16.6041 57.6254 16.33 57.3524C15.5196 56.4418 16.3393 54.9011 18.5389 53.5006C20.176 52.4773 21.8658 51.5407 23.6012 50.6947C25.3629 49.9035 27.1621 49.1902 28.9693 48.536C32.5999 47.1631 36.3566 46.0614 40.1938 45.0484C43.0437 44.3016 45.932 43.6595 48.8588 43.1222C50.3303 42.8517 51.7963 42.6027 53.2731 42.4021L55.4936 42.1025C56.0575 42.0383 56.7744 41.9098 57.4994 41.7947L57.5987 41.9451Z" fill="#3C4A3E"/>
<path d="M60.8642 68.1779L60.6977 68.3416L60.6064 68.3872C60.5367 68.4222 60.4768 68.4738 60.4318 68.5375C60.3941 68.6103 60.3806 68.6933 60.3931 68.7743C60.4056 68.8554 60.4435 68.9304 60.5014 68.9886C60.5287 69.0285 60.5622 69.0639 60.6006 69.0933C60.6582 69.1598 60.7322 69.2098 60.8154 69.2384C60.9438 69.3289 61.0814 69.4055 61.226 69.4668L61.8246 69.7195C62.7279 70.0481 63.655 70.3071 64.5978 70.4941C66.0448 70.7767 67.5751 70.8177 69.1135 70.9634C74.6496 71.4223 80.2147 71.4116 85.749 70.9312C88.238 70.6988 90.7351 70.343 93.1758 69.9387L102.566 68.1713C103.524 67.9892 103.615 68.5369 102.962 69.4119C101.966 70.6147 100.654 71.5151 99.1728 72.0117C95.9924 73.0797 92.7531 73.9638 89.4711 74.6596C86.1546 75.2252 82.8028 75.5599 79.4399 75.6616C75.3911 75.7885 71.2051 76.2348 66.9497 75.9562C64.5203 75.8347 62.1162 75.405 59.7952 74.6775C59.114 74.4379 58.4495 74.1532 57.8061 73.8254L56.6949 73.1134C56.3407 72.8638 56.0101 72.5824 55.7073 72.2725C55.1198 71.6853 54.6779 70.9689 54.4169 70.1804C54.1744 69.3894 54.187 68.5421 54.4529 67.7586C54.8096 66.7943 55.379 65.9228 56.1188 65.2088L57.0428 64.2991L57.2712 64.071L57.5423 64.2188C57.6717 64.3075 57.8092 64.384 57.9529 64.4472L58.2966 64.5333C58.7046 64.6355 58.7396 64.4959 58.5247 64.6703C58.4533 64.7223 58.3884 64.7827 58.3313 64.8501L58.3152 64.9145C58.2346 65.0085 58.9573 64.0369 58.6483 64.4502C58.5996 64.5043 58.5547 64.5617 58.514 64.622C58.3809 64.9359 58.273 65.26 58.1913 65.5911L58.1321 65.8273L58.0033 65.795L57.6408 65.7841C57.0266 65.7934 56.4134 65.8379 55.8043 65.9175C51.7653 66.4637 47.7754 67.3262 43.8715 68.4972C40.8237 69.4113 37.9959 70.7685 35.101 71.9377C34.4646 72.2005 33.8227 72.4848 33.2132 72.7315C30.8393 73.6432 29.9265 73.4602 28.9202 72.5119C28.6774 72.3074 28.4462 72.0895 28.2278 71.8592C27.6106 71.0883 28.2637 69.8482 29.9262 68.6784C31.1938 67.8548 32.4802 67.1385 33.8176 66.4465C35.1688 65.7863 36.5567 65.2043 37.9747 64.7033C40.8448 63.6703 43.7668 62.7872 46.7286 62.0576C48.9627 61.4761 51.1994 61.0207 53.5516 60.6513C54.8032 60.4847 56.064 60.3966 57.3266 60.3874L57.9549 60.385C58.1482 60.4334 58.4704 60.4228 58.7147 60.4498C58.959 60.4768 59.1013 60.5466 59.2838 60.5924L59.7563 60.7107L60.0677 60.7887C60.4619 60.9581 60.8327 61.1775 61.1709 61.4417C61.5144 61.7302 61.8144 62.0667 62.0618 62.4409C62.3838 62.9467 62.5916 63.5168 62.6704 64.1112C62.703 64.3892 62.7092 64.6697 62.6888 64.9489C62.6565 65.0777 62.6242 65.2066 62.592 65.3355L62.5193 65.6254C62.4816 65.8212 62.4331 66.0148 62.3741 66.2052L62.2021 66.573C62.1044 66.7739 61.9912 66.9668 61.8635 67.1501C61.5844 67.5438 61.2774 67.9169 60.9447 68.2665L60.8642 68.1779Z" fill="#3C4A3E"/>
<path d="M52.0915 87.1611C52.1667 87.1799 52.0619 87.2792 52.6122 87.4513C53.1626 87.6234 53.6861 87.7203 54.3089 87.8763C55.5823 88.1676 56.8753 88.3656 58.1775 88.4689C59.1601 88.5552 60.1401 88.4698 61.1469 88.5052C64.7268 88.6448 68.312 88.5595 71.8812 88.25C73.4654 88.0762 75.0549 87.8353 76.6177 87.5649C78.61 87.1739 80.5944 86.7238 82.6028 86.4509C83.2284 86.368 83.3195 86.8245 82.9567 87.4982C82.4286 88.4106 81.6163 89.125 80.644 89.5322C78.6184 90.3072 76.5489 90.9624 74.4464 91.4945C72.3322 91.9086 70.1897 92.1615 68.0372 92.2513C65.4543 92.3574 62.7934 92.8206 60.1138 92.9025C58.6244 92.9381 57.134 92.8961 55.6489 92.7769C54.0784 92.6801 52.5272 92.3797 51.0341 91.8832C48.7953 91.117 46.1006 89.1638 46.6522 86.5973C46.9407 85.7246 47.4552 84.9439 48.1434 84.3347L48.6619 83.814L48.7989 83.6772L48.874 83.696L49.0136 83.731C49.2587 83.9083 49.5435 84.0227 49.8431 84.0643C49.7894 84.0509 49.8431 84.0643 49.7034 84.1663L49.6094 84.2682L49.5933 84.3327C49.338 84.6682 49.9264 83.8684 49.87 83.9569C49.668 84.2015 49.5585 84.5094 49.5608 84.8267L49.5205 84.9877L49.4668 84.9743C49.4243 84.95 49.376 84.9379 49.3272 84.9393C49.2023 84.926 49.0764 84.9251 48.9513 84.9365C48.6747 84.9471 48.3713 84.9738 48.0652 85.0112C47.4399 85.0861 46.8188 85.1933 46.2045 85.3325C44.2467 85.897 42.3257 86.582 40.4525 87.3836C40.0416 87.5204 39.6442 87.6947 39.2038 87.8126C37.6383 88.2763 37.0048 87.9807 36.3502 87.0407C36.2026 86.8097 36.0255 86.6056 35.8994 86.38C35.5051 85.6307 35.9512 84.7154 37.0282 83.9695C37.8456 83.4631 38.6892 83.0002 39.5554 82.5826C40.4349 82.1743 41.3443 81.8337 42.2756 81.5637C43.2155 81.2742 44.1687 81.0223 45.1569 80.8133C46.2196 80.5724 47.2981 80.4079 48.3843 80.3209C48.6405 80.297 48.8978 80.2891 49.1549 80.2971L49.5979 80.3054C49.8248 80.3175 50.0508 80.3436 50.2745 80.3836L50.4463 80.4266C50.5264 80.4403 50.6054 80.4601 50.6825 80.4858C50.9586 80.5648 51.2265 80.6701 51.4824 80.8003C51.7373 80.932 51.9767 81.0915 52.1964 81.2759C52.4402 81.484 52.6566 81.7223 52.8404 81.985C52.955 82.1534 53.0598 82.3282 53.1543 82.5087C53.2493 82.7233 53.3273 82.9451 53.3876 83.172C53.5051 83.6147 53.5368 84.0759 53.4809 84.5306C53.4445 84.8584 53.3639 85.1799 53.2415 85.4863C53.1646 85.6787 53.0758 85.866 52.9754 86.0473C52.9404 86.1869 52.8088 86.3022 52.7336 86.4203L52.5321 86.678L52.2769 86.9678C52.2616 86.9719 52.2477 86.98 52.2366 86.9912C52.2254 87.0025 52.2176 87.0166 52.2137 87.0319C52.2099 87.0472 52.2102 87.0633 52.2147 87.0785C52.2192 87.0937 52.2276 87.1074 52.2392 87.1182L52.0915 87.1611Z" fill="#3C4A3E"/>
</svg>
