<svg width="61" height="51" viewBox="0 0 61 51" fill="none" xmlns="http://www.w3.org/2000/svg">
<path fill-rule="evenodd" clip-rule="evenodd" d="M14.75 32.4019C14.2279 32.4019 13.7271 32.6092 13.3579 32.9785C12.9887 33.3477 12.7812 33.8485 12.7812 34.3706C12.7812 34.8928 12.9887 35.3935 13.3579 35.7627C13.7271 36.1319 14.2279 36.3394 14.75 36.3394H30.5C31.0221 36.3394 31.5229 36.1319 31.8921 35.7627C32.2613 35.3935 32.4688 34.8928 32.4688 34.3706C32.4688 33.8485 32.2613 33.3477 31.8921 32.9785C31.5229 32.6092 31.0221 32.4019 30.5 32.4019H14.75Z" fill="#25D366"/>
<path fill-rule="evenodd" clip-rule="evenodd" d="M18.6875 26.4956C18.1654 26.4956 17.6646 26.703 17.2954 27.0722C16.9262 27.4414 16.7188 27.9422 16.7188 28.4644C16.7188 28.9865 16.9262 29.4872 17.2954 29.8564C17.6646 30.2257 18.1654 30.4331 18.6875 30.4331H30.5C31.0221 30.4331 31.5229 30.2257 31.8921 29.8564C32.2613 29.4872 32.4688 28.9865 32.4688 28.4644C32.4688 27.9422 32.2613 27.4414 31.8921 27.0722C31.5229 26.703 31.0221 26.4956 30.5 26.4956H18.6875Z" fill="#25D366"/>
<path fill-rule="evenodd" clip-rule="evenodd" d="M24.5938 20.5894C24.0716 20.5894 23.5708 20.7967 23.2016 21.166C22.8324 21.5352 22.625 22.036 22.625 22.5581C22.625 23.0803 22.8324 23.581 23.2016 23.9502C23.5708 24.3194 24.0716 24.5269 24.5938 24.5269H30.5C31.0221 24.5269 31.5229 24.3194 31.8921 23.9502C32.2613 23.581 32.4688 23.0803 32.4688 22.5581C32.4688 22.036 32.2613 21.5352 31.8921 21.166C31.5229 20.7967 31.0221 20.5894 30.5 20.5894H24.5938Z" fill="#25D366"/>
<path fill-rule="evenodd" clip-rule="evenodd" d="M16.4996 8.78826C16.0559 8.83822 15.6423 9.03754 15.3268 9.3535L11.7969 12.8834L10.2357 11.3223C9.86652 10.9531 9.36583 10.7458 8.84375 10.7458C8.32168 10.7458 7.82099 10.9531 7.45179 11.3223C7.08267 11.6915 6.87531 12.1922 6.87531 12.7142C6.87531 13.2363 7.08267 13.737 7.45179 14.1062L10.4049 17.0593C10.7741 17.4284 11.2748 17.6357 11.7969 17.6357C12.3189 17.6357 12.8196 17.4284 13.1888 17.0593L18.1107 12.1374C18.4798 11.7682 18.6872 11.2675 18.6872 10.7455C18.6872 10.2234 18.4798 9.7227 18.1107 9.3535C17.9018 9.14439 17.6485 8.98501 17.3696 8.88715C17.0907 8.7893 16.7933 8.75549 16.4996 8.78826Z" fill="#25D366"/>
<path fill-rule="evenodd" clip-rule="evenodd" d="M12.7812 0.901855C6.28072 0.901855 0.96875 6.21384 0.96875 12.7144C0.96875 16.1951 2.49325 19.3345 4.90625 21.5007V44.2144C4.9063 44.7365 5.11374 45.2372 5.48294 45.6064C5.85214 45.9756 6.35287 46.1831 6.875 46.1831H11.1547C11.9731 48.4676 14.1685 50.1206 16.7188 50.1206C19.269 50.1206 21.4644 48.4676 22.2828 46.1831H36.4062H40.686C41.5044 48.4676 43.6998 50.1206 46.25 50.1206C48.8002 50.1206 50.9956 48.4676 51.814 46.1831H58.0625C58.5846 46.1831 59.0854 45.9756 59.4546 45.6064C59.8238 45.2372 60.0312 44.7365 60.0312 44.2144V30.4331C60.0316 29.9859 59.8797 29.552 59.6006 29.2026L51.7256 19.3589C51.541 19.1284 51.3069 18.9423 51.0407 18.8145C50.7744 18.6867 50.4828 18.6204 50.1875 18.6206H38.375V14.6831C38.3749 14.161 38.1675 13.6602 37.7983 13.291C37.4291 12.9218 36.9284 12.7144 36.4062 12.7144H24.5938C24.5938 6.21384 19.2818 0.901855 12.7812 0.901855ZM12.7812 4.83936C17.1538 4.83936 20.6562 8.3418 20.6562 12.7144C20.6562 17.0869 17.1538 20.5894 12.7812 20.5894C11.1126 20.5894 9.5705 20.0789 8.30157 19.2051C8.14948 19.0444 7.97139 18.9105 7.77478 18.809C6.01967 17.3687 4.90625 15.1798 4.90625 12.7144C4.90625 8.3418 8.4087 4.83936 12.7812 4.83936ZM23.9131 16.6519H34.4375V42.2456H22.2828C21.4644 39.9611 19.269 38.3081 16.7188 38.3081C14.1685 38.3081 11.9731 39.9611 11.1547 42.2456H8.84375V23.8463C10.0767 24.2852 11.4018 24.5269 12.7812 24.5269C17.9024 24.5269 22.2834 21.2293 23.9131 16.6519ZM38.375 22.5581H42.3125V32.4019C42.3126 32.924 42.52 33.4247 42.8892 33.7939C43.2584 34.1631 43.7591 34.3706 44.2812 34.3706H56.0938V42.2456H51.814C50.9956 39.9611 48.8002 38.3081 46.25 38.3081C43.6998 38.3081 41.5044 39.9611 40.686 42.2456H38.375V22.5581ZM46.25 22.5581H49.2416L55.54 30.4331H46.25V22.5581ZM16.7188 42.2456C17.8294 42.2456 18.6875 43.1037 18.6875 44.2144C18.6875 45.325 17.8294 46.1831 16.7188 46.1831C15.6081 46.1831 14.75 45.325 14.75 44.2144C14.75 43.1037 15.6081 42.2456 16.7188 42.2456ZM46.25 42.2456C47.3606 42.2456 48.2188 43.1037 48.2188 44.2144C48.2188 45.325 47.3606 46.1831 46.25 46.1831C45.1394 46.1831 44.2812 45.325 44.2812 44.2144C44.2812 43.1037 45.1394 42.2456 46.25 42.2456Z" fill="#25D366"/>
</svg>
