<svg width="63" height="63" viewBox="0 0 63 63" fill="none" xmlns="http://www.w3.org/2000/svg">
<g clip-path="url(#clip0_26_92)">
<path d="M31.5002 21.7349C25.4401 21.7349 20.5103 26.6651 20.5103 32.7242C20.5103 38.7833 25.4401 43.7146 31.5002 43.7146C37.5599 43.7146 42.4897 38.7834 42.4897 32.7242C42.4897 26.665 37.5599 21.7349 31.5002 21.7349ZM35.0399 29.6839C35.5199 29.6839 35.9082 30.0735 35.9082 30.5517C35.9082 31.0308 35.5199 31.4204 35.0399 31.4204C34.5619 31.4204 34.1727 31.0308 34.1727 30.5517C34.1727 30.0735 34.5619 29.6839 35.0399 29.6839ZM30.8248 27.4239C31.2291 27.4239 31.556 27.7514 31.556 28.1536C31.556 28.5577 31.2291 28.8843 30.8248 28.8843C30.4216 28.8843 30.0952 28.5578 30.0952 28.1536C30.0952 27.7514 30.4216 27.4239 30.8248 27.4239ZM39.8923 32.7243C39.8923 37.3601 36.1349 41.1173 31.5001 41.1173C26.8813 41.1173 23.1366 37.3862 23.108 32.7757C31.3034 25.5437 30.8496 40.1458 39.8676 32.1121C39.8827 32.3132 39.8923 32.5173 39.8923 32.7243Z" fill="#25D366"/>
<path d="M42.4823 21.7426C39.6722 18.9316 35.7823 17.1875 31.5001 17.1875C27.2176 17.1875 23.3276 18.9316 20.5175 21.7426C17.7061 24.5526 15.9614 28.4431 15.9623 32.7241C15.9614 37.0072 17.706 40.8968 20.5175 43.7068C23.3275 46.5178 27.2175 48.2629 31.5001 48.2619C35.7822 48.2629 39.6722 46.5178 42.4823 43.7068C43.589 42.6001 44.5271 41.3244 45.2617 39.9241H51.647V27.2286H46.0309C45.2424 25.1521 44.0247 23.2836 42.4823 21.7426ZM41.142 42.367C38.6682 44.8407 35.263 46.3672 31.5003 46.3672C27.737 46.3672 24.3319 44.8407 21.8581 42.367C19.3857 39.8932 17.8578 36.4875 17.8578 32.7243C17.8578 28.9621 19.3857 25.5574 21.8581 23.0826C24.3319 20.6107 27.737 19.0823 31.5003 19.0823C35.263 19.0823 38.6682 20.6107 41.142 23.0826C43.6142 25.5573 45.1422 28.962 45.1422 32.7243C45.1422 36.4874 43.6142 39.8931 41.142 42.367ZM46.6118 29.1251H49.7517V38.0293H46.1036C46.7075 36.3727 47.0374 34.5858 47.0374 32.7241C47.0374 31.4864 46.8878 30.2804 46.6118 29.1251Z" fill="#25D366"/>
<path d="M57.5978 0.997912C56.9851 0.383785 56.1228 -0.000982491 55.1862 1.8843e-06H7.81375C6.87712 -0.000982491 6.01468 0.383785 5.40215 0.997912C4.78704 1.61204 4.40277 2.47287 4.40326 3.41049V57.5676C4.40277 58.5051 4.78704 59.367 5.40215 59.9802C6.01468 60.5942 6.87712 60.9799 7.81375 60.9781H10.8449V63H16.6563V60.9781H46.3437V63H52.1552V60.9781H55.1863C56.1229 60.9799 56.9852 60.5942 57.5979 59.9802C58.213 59.3669 58.5973 58.5051 58.5968 57.5676V3.41049C58.5972 2.47275 58.2129 1.61192 57.5978 0.997912ZM55.5652 57.5676C55.5642 57.6784 55.5248 57.7619 55.4539 57.8357C55.3805 57.9076 55.295 57.9465 55.1862 57.9465H7.81375C7.70485 57.9465 7.61946 57.9076 7.54612 57.8357C7.47513 57.7619 7.43624 57.6782 7.43477 57.5676V53.8403H55.5652V57.5676ZM55.5652 51.9465H7.43477V3.41049C7.43624 3.30172 7.47513 3.2162 7.54612 3.14323C7.61946 3.07137 7.70485 3.03249 7.81375 3.03065H55.1862C55.295 3.03249 55.3805 3.0715 55.4539 3.14323C55.5248 3.2162 55.5642 3.30172 55.5652 3.41049V51.9465Z" fill="#25D366"/>
<path d="M46.5648 7.36011H16.4352V14.941H46.5648V7.36011Z" fill="#25D366"/>
</g>
<defs>
<clipPath id="clip0_26_92">
<rect width="63" height="63" fill="white"/>
</clipPath>
</defs>
</svg>
